<svg width="40" height="40" viewBox="0 0 40 40" fill="none" xmlns="http://www.w3.org/2000/svg">
<circle cx="20" cy="20" r="20" fill="#276E89"/>
<path d="M18.5918 22.6777C18.4811 24.2077 17.9147 25.4121 16.8926 26.291C15.877 27.1699 14.5358 27.6094 12.8691 27.6094C11.0462 27.6094 9.61068 26.9974 8.5625 25.7734C7.52083 24.543 7 22.8568 7 20.7148V19.8457C7 18.4785 7.24089 17.2741 7.72266 16.2324C8.20443 15.1908 8.89128 14.3932 9.7832 13.8398C10.6816 13.2799 11.7233 13 12.9082 13C14.5488 13 15.8704 13.4395 16.873 14.3184C17.8757 15.1973 18.4551 16.431 18.6113 18.0195H15.6816C15.61 17.1016 15.3529 16.4375 14.9102 16.0273C14.474 15.6107 13.8066 15.4023 12.9082 15.4023C11.9316 15.4023 11.1992 15.7539 10.7109 16.457C10.2292 17.1536 9.98177 18.2376 9.96875 19.709V20.7832C9.96875 22.3197 10.1999 23.4427 10.6621 24.1523C11.1309 24.862 11.8665 25.2168 12.8691 25.2168C13.7741 25.2168 14.4479 25.0117 14.8906 24.6016C15.3398 24.1849 15.597 23.5436 15.6621 22.6777H18.5918Z" fill="#DEDDDE"/>
<path d="M25.7695 23.8887L28.9922 13.1953H32.2539L27.3027 27.4141H24.2461L19.3145 13.1953H22.5664L25.7695 23.8887Z" fill="#DEDDDE"/>
</svg>
